{
    "asset" : {
        "generator" : "Khronos glTF Blender I/O v3.4.50",
        "version" : "2.0"
    },
    "extensionsUsed" : [
        "KHR_materials_specular",
        "KHR_materials_ior"
    ],
    "scene" : 0,
    "scenes" : [
        {
            "name" : "Scene",
            "nodes" : [
                0,
                1,
                2,
                25
            ]
        }
    ],
    "nodes" : [
        {
            "mesh" : 0,
            "name" : "Cube",
            "rotation" : [
                0,
                -0.9987649321556091,
                0,
                0.049684882164001465
            ],
            "scale" : [
                0.0725548192858696,
                0.09163773059844971,
                0.0869055837392807
            ],
            "translation" : [
                0.0008857434149831533,
                1.0323549509048462,
                -0.010601308196783066
            ]
        },
        {
            "mesh" : 1,
            "name" : "Icosphere",
            "scale" : [
                0.9460171461105347,
                0.9460171461105347,
                0.9460171461105347
            ],
            "translation" : [
                0.03960999473929405,
                0,
                -0.054687514901161194
            ]
        },
        {
            "mesh" : 2,
            "name" : "Cylinder",
            "scale" : [
                0.06715735048055649,
                0.04564015939831734,
                0.07217296212911606
            ],
            "translation" : [
                0,
                0.537972629070282,
                0
            ]
        },
        {
            "name" : "hand.R",
            "rotation" : [
                0.0069648511707782745,
                5.600577779318883e-09,
                -0.0006603268557228148,
                0.9999755620956421
            ],
            "scale" : [
                0.9999999403953552,
                0.9999999403953552,
                0.9999999403953552
            ],
            "translation" : [
                3.640889190137386e-08,
                0.04483506828546524,
                4.6566128730773926e-09
            ]
        },
        {
            "children" : [
                3
            ],
            "name" : "arm.R",
            "rotation" : [
                0.6990073919296265,
                4.708688905452618e-08,
                -0.06627096235752106,
                0.7120370864868164
            ],
            "scale" : [
                0.9999999403953552,
                1.0000001192092896,
                1
            ],
            "translation" : [
                2.7018426607128276e-08,
                0.013174193911254406,
                4.031464584386413e-08
            ]
        },
        {
            "children" : [
                4
            ],
            "name" : "upper.R",
            "rotation" : [
                -0.04207791015505791,
                -2.006551547140134e-08,
                0.04918837547302246,
                0.9979028105735779
            ],
            "scale" : [
                0.9999999403953552,
                0.9999997615814209,
                0.9999998807907104
            ],
            "translation" : [
                -5.587935447692871e-09,
                0.03575684502720833,
                2.2351741790771484e-08
            ]
        },
        {
            "children" : [
                5
            ],
            "name" : "shoulder.R",
            "rotation" : [
                0.7362000346183777,
                -1.2650400726954558e-08,
                -0.06667400896549225,
                0.6734716296195984
            ],
            "scale" : [
                1,
                1,
                1.0000001192092896
            ],
            "translation" : [
                0,
                0.08000001311302185,
                0
            ]
        },
        {
            "name" : "hand.L",
            "rotation" : [
                -3.0409907481043774e-07,
                -3.410503722989233e-06,
                3.3832277495093876e-06,
                1
            ],
            "scale" : [
                0.9999999403953552,
                1,
                0.9999999403953552
            ],
            "translation" : [
                -7.3283121793110695e-09,
                0.04466249421238899,
                -4.912951712121583e-10
            ]
        },
        {
            "children" : [
                7
            ],
            "name" : "arm.L",
            "rotation" : [
                -0.7042674422264099,
                0,
                -0.06330500543117523,
                0.7071067690849304
            ],
            "scale" : [
                1,
                1.0000001192092896,
                1
            ],
            "translation" : [
                -2.4452813107700422e-08,
                0.013779876753687859,
                1.391904924652465e-09
            ]
        },
        {
            "children" : [
                8
            ],
            "name" : "upper.L",
            "rotation" : [
                0.04023661091923714,
                3.2658202808732995e-09,
                0.04657318815588951,
                0.9981042146682739
            ],
            "translation" : [
                1.1175870895385742e-08,
                0.0375991053879261,
                1.4901161193847656e-08
            ]
        },
        {
            "children" : [
                9
            ],
            "name" : "shoulder.L",
            "rotation" : [
                -0.7349560260772705,
                -1.2671813820475109e-08,
                -0.06324852257966995,
                0.6751587390899658
            ],
            "scale" : [
                1,
                1,
                0.9999999403953552
            ],
            "translation" : [
                0,
                0.08000001311302185,
                0
            ]
        },
        {
            "name" : "face",
            "rotation" : [
                -2.6692541510442425e-08,
                -2.6692541510442425e-08,
                -0.7071068286895752,
                0.7071068286895752
            ],
            "translation" : [
                0,
                0.027979731559753418,
                0
            ]
        },
        {
            "name" : "head",
            "translation" : [
                0,
                0.027979731559753418,
                0
            ]
        },
        {
            "children" : [
                11,
                12
            ],
            "name" : "neck",
            "translation" : [
                0,
                0.08000001311302185,
                0
            ]
        },
        {
            "children" : [
                6,
                10,
                13
            ],
            "name" : "Bone",
            "translation" : [
                -0.009135246276855469,
                0,
                0
            ]
        },
        {
            "name" : "foot.l",
            "rotation" : [
                0.005130695179104805,
                -2.4720133787469622e-17,
                1.2232529433831019e-09,
                0.9999868869781494
            ],
            "scale" : [
                1,
                0.9999999403953552,
                0.9999999403953552
            ],
            "translation" : [
                1.6325007123896285e-08,
                0.061136823147535324,
                6.98079816174868e-09
            ]
        },
        {
            "children" : [
                15
            ],
            "name" : "leg.L",
            "rotation" : [
                -0.7107253670692444,
                8.386010108552e-08,
                -8.47250731794702e-08,
                0.7034695744514465
            ],
            "translation" : [
                0,
                0.024767443537712097,
                0
            ]
        },
        {
            "children" : [
                16
            ],
            "name" : "hip.l",
            "rotation" : [
                -0.7071068286895752,
                0,
                0,
                0.7071068286895752
            ],
            "translation" : [
                -0.009135246276855469,
                0,
                0
            ]
        },
        {
            "name" : "foot.R",
            "rotation" : [
                0,
                8.742279078433057e-08,
                0,
                1
            ],
            "scale" : [
                1,
                0.9999999403953552,
                1
            ],
            "translation" : [
                -1.8228021758659452e-08,
                0.06196385622024536,
                -2.7245903311268194e-09
            ]
        },
        {
            "children" : [
                18
            ],
            "name" : "leg.R",
            "rotation" : [
                -0.7071068286895752,
                -1.9949604279645428e-07,
                1.9949604279645428e-07,
                0.7071068286895752
            ],
            "translation" : [
                0,
                0.022283077239990234,
                0
            ]
        },
        {
            "children" : [
                19
            ],
            "name" : "hip.R",
            "rotation" : [
                0,
                0.7071068286895752,
                0.7071068286895752,
                0
            ],
            "translation" : [
                -0.009135246276855469,
                0,
                0
            ]
        },
        {
            "name" : "headtail",
            "rotation" : [
                -0.7071068286895752,
                2.6692541510442425e-08,
                2.6692541510442425e-08,
                0.7071068286895752
            ],
            "translation" : [
                -9.986010240936594e-09,
                0.09655463695526123,
                -1.209632571885777e-08
            ]
        },
        {
            "children" : [
                21
            ],
            "name" : "midtail",
            "rotation" : [
                0.7071068286895752,
                -2.6692541510442425e-08,
                -2.6692541510442425e-08,
                0.7071068286895752
            ],
            "translation" : [
                0,
                0.11630773544311523,
                0
            ]
        },
        {
            "children" : [
                22
            ],
            "name" : "basetail",
            "rotation" : [
                -0.5,
                0.5,
                0.5,
                0.5
            ],
            "translation" : [
                -0.009135246276855469,
                0,
                0
            ]
        },
        {
            "mesh" : 3,
            "name" : "Monky",
            "skin" : 0
        },
        {
            "children" : [
                24,
                14,
                17,
                20,
                23
            ],
            "name" : "waist",
            "scale" : [
                1,
                0.7556518316268921,
                1
            ],
            "translation" : [
                0.5852898359298706,
                0.2540931701660156,
                -0.1602206826210022
            ]
        }
    ],
    "materials" : [
        {
            "doubleSided" : true,
            "name" : "vegetation.001",
            "pbrMetallicRoughness" : {
                "baseColorFactor" : [
                    0.21508046984672546,
                    0.8000000715255737,
                    0.024847080931067467,
                    1
                ],
                "metallicFactor" : 0,
                "roughnessFactor" : 0.5
            }
        },
        {
            "doubleSided" : true,
            "name" : "sand",
            "pbrMetallicRoughness" : {
                "baseColorFactor" : [
                    0.9822500944137573,
                    0.8549922108650208,
                    0.17144137620925903,
                    1
                ],
                "metallicFactor" : 0,
                "roughnessFactor" : 0.5
            }
        },
        {
            "doubleSided" : true,
            "name" : "dirt",
            "pbrMetallicRoughness" : {
                "baseColorFactor" : [
                    0.2874407470226288,
                    0.14995968341827393,
                    0.07421358674764633,
                    1
                ],
                "metallicFactor" : 0,
                "roughnessFactor" : 0.5
            }
        },
        {
            "doubleSided" : true,
            "name" : "wood.001",
            "pbrMetallicRoughness" : {
                "baseColorFactor" : [
                    0.38132578134536743,
                    0.33716335892677307,
                    0.15896090865135193,
                    1
                ],
                "metallicFactor" : 0,
                "roughnessFactor" : 0.5
            }
        },
        {
            "doubleSided" : true,
            "extensions" : {
                "KHR_materials_specular" : {
                    "specularColorFactor" : [
                        0,
                        0,
                        0
                    ]
                },
                "KHR_materials_ior" : {
                    "ior" : 1.4500000476837158
                }
            },
            "name" : "palette.013",
            "pbrMetallicRoughness" : {
                "baseColorTexture" : {
                    "index" : 0
                },
                "roughnessFactor" : 0.7171573042869568
            }
        }
    ],
    "meshes" : [
        {
            "name" : "Cube.001",
            "primitives" : [
                {
                    "attributes" : {
                        "POSITION" : 0,
                        "TEXCOORD_0" : 1,
                        "NORMAL" : 2
                    },
                    "indices" : 3,
                    "material" : 0
                }
            ]
        },
        {
            "name" : "Icosphere",
            "primitives" : [
                {
                    "attributes" : {
                        "POSITION" : 4,
                        "NORMAL" : 5
                    },
                    "indices" : 6,
                    "material" : 1
                },
                {
                    "attributes" : {
                        "POSITION" : 7,
                        "NORMAL" : 8
                    },
                    "indices" : 9,
                    "material" : 2
                }
            ]
        },
        {
            "name" : "Cylinder.001",
            "primitives" : [
                {
                    "attributes" : {
                        "POSITION" : 10,
                        "TEXCOORD_0" : 11,
                        "NORMAL" : 12
                    },
                    "indices" : 13,
                    "material" : 3
                }
            ]
        },
        {
            "name" : "Mesh.013",
            "primitives" : [
                {
                    "attributes" : {
                        "POSITION" : 14,
                        "TEXCOORD_0" : 15,
                        "NORMAL" : 16,
                        "JOINTS_0" : 17,
                        "WEIGHTS_0" : 18
                    },
                    "indices" : 19,
                    "material" : 4
                }
            ]
        }
    ],
    "textures" : [
        {
            "sampler" : 0,
            "source" : 0
        }
    ],
    "images" : [
        {
            "mimeType" : "image/png",
            "name" : "Monky",
            "uri" : "text/Monky.png"
        }
    ],
    "skins" : [
        {
            "inverseBindMatrices" : 20,
            "joints" : [
                14,
                6,
                5,
                4,
                3,
                10,
                9,
                8,
                7,
                13,
                11,
                12,
                17,
                16,
                15,
                20,
                19,
                18,
                23,
                22,
                21
            ],
            "name" : "waist"
        }
    ],
    "accessors" : [
        {
            "bufferView" : 0,
            "componentType" : 5126,
            "count" : 608,
            "max" : [
                4.863192081451416,
                -0.22156944870948792,
                4.090841770172119
            ],
            "min" : [
                -4.749831676483154,
                -3.8733701705932617,
                -4.090841770172119
            ],
            "type" : "VEC3"
        },
        {
            "bufferView" : 1,
            "componentType" : 5126,
            "count" : 608,
            "type" : "VEC2"
        },
        {
            "bufferView" : 2,
            "componentType" : 5126,
            "count" : 608,
            "type" : "VEC3"
        },
        {
            "bufferView" : 3,
            "componentType" : 5123,
            "count" : 2832,
            "type" : "SCALAR"
        },
        {
            "bufferView" : 4,
            "componentType" : 5126,
            "count" : 1740,
            "max" : [
                1.0289967060089111,
                0.15422868728637695,
                1.0289967060089111
            ],
            "min" : [
                -1.0289967060089111,
                0.012298107147216797,
                -1.0289967060089111
            ],
            "type" : "VEC3"
        },
        {
            "bufferView" : 5,
            "componentType" : 5126,
            "count" : 1740,
            "type" : "VEC3"
        },
        {
            "bufferView" : 6,
            "componentType" : 5123,
            "count" : 5406,
            "type" : "SCALAR"
        },
        {
            "bufferView" : 7,
            "componentType" : 5126,
            "count" : 4530,
            "max" : [
                1.0289967060089111,
                0.012298107147216797,
                1.0289967060089111
            ],
            "min" : [
                -1.0289967060089111,
                -0.9102506637573242,
                -1.0289967060089111
            ],
            "type" : "VEC3"
        },
        {
            "bufferView" : 8,
            "componentType" : 5126,
            "count" : 4530,
            "type" : "VEC3"
        },
        {
            "bufferView" : 9,
            "componentType" : 5123,
            "count" : 10074,
            "type" : "SCALAR"
        },
        {
            "bufferView" : 10,
            "componentType" : 5126,
            "count" : 240,
            "max" : [
                0.9999998807907104,
                9.048312187194824,
                0.9999998807907104
            ],
            "min" : [
                -0.9999998807907104,
                -9.048310279846191,
                -0.9999998807907104
            ],
            "type" : "VEC3"
        },
        {
            "bufferView" : 11,
            "componentType" : 5126,
            "count" : 240,
            "type" : "VEC2"
        },
        {
            "bufferView" : 12,
            "componentType" : 5126,
            "count" : 240,
            "type" : "VEC3"
        },
        {
            "bufferView" : 13,
            "componentType" : 5123,
            "count" : 372,
            "type" : "SCALAR"
        },
        {
            "bufferView" : 14,
            "componentType" : 5126,
            "count" : 856,
            "max" : [
                0.6806361079216003,
                0.45564335584640503,
                -0.057746462523937225
            ],
            "min" : [
                0.40423113107681274,
                0.15620464086532593,
                -0.2650502026081085
            ],
            "type" : "VEC3"
        },
        {
            "bufferView" : 15,
            "componentType" : 5126,
            "count" : 856,
            "type" : "VEC2"
        },
        {
            "bufferView" : 16,
            "componentType" : 5126,
            "count" : 856,
            "type" : "VEC3"
        },
        {
            "bufferView" : 17,
            "componentType" : 5121,
            "count" : 856,
            "type" : "VEC4"
        },
        {
            "bufferView" : 18,
            "componentType" : 5126,
            "count" : 856,
            "type" : "VEC4"
        },
        {
            "bufferView" : 19,
            "componentType" : 5123,
            "count" : 2466,
            "type" : "SCALAR"
        },
        {
            "bufferView" : 20,
            "componentType" : 5126,
            "count" : 21,
            "type" : "MAT4"
        }
    ],
    "bufferViews" : [
        {
            "buffer" : 0,
            "byteLength" : 7296,
            "byteOffset" : 0,
            "target" : 34962
        },
        {
            "buffer" : 0,
            "byteLength" : 4864,
            "byteOffset" : 7296,
            "target" : 34962
        },
        {
            "buffer" : 0,
            "byteLength" : 7296,
            "byteOffset" : 12160,
            "target" : 34962
        },
        {
            "buffer" : 0,
            "byteLength" : 5664,
            "byteOffset" : 19456,
            "target" : 34963
        },
        {
            "buffer" : 0,
            "byteLength" : 20880,
            "byteOffset" : 25120,
            "target" : 34962
        },
        {
            "buffer" : 0,
            "byteLength" : 20880,
            "byteOffset" : 46000,
            "target" : 34962
        },
        {
            "buffer" : 0,
            "byteLength" : 10812,
            "byteOffset" : 66880,
            "target" : 34963
        },
        {
            "buffer" : 0,
            "byteLength" : 54360,
            "byteOffset" : 77692,
            "target" : 34962
        },
        {
            "buffer" : 0,
            "byteLength" : 54360,
            "byteOffset" : 132052,
            "target" : 34962
        },
        {
            "buffer" : 0,
            "byteLength" : 20148,
            "byteOffset" : 186412,
            "target" : 34963
        },
        {
            "buffer" : 0,
            "byteLength" : 2880,
            "byteOffset" : 206560,
            "target" : 34962
        },
        {
            "buffer" : 0,
            "byteLength" : 1920,
            "byteOffset" : 209440,
            "target" : 34962
        },
        {
            "buffer" : 0,
            "byteLength" : 2880,
            "byteOffset" : 211360,
            "target" : 34962
        },
        {
            "buffer" : 0,
            "byteLength" : 744,
            "byteOffset" : 214240,
            "target" : 34963
        },
        {
            "buffer" : 0,
            "byteLength" : 10272,
            "byteOffset" : 214984,
            "target" : 34962
        },
        {
            "buffer" : 0,
            "byteLength" : 6848,
            "byteOffset" : 225256,
            "target" : 34962
        },
        {
            "buffer" : 0,
            "byteLength" : 10272,
            "byteOffset" : 232104,
            "target" : 34962
        },
        {
            "buffer" : 0,
            "byteLength" : 3424,
            "byteOffset" : 242376,
            "target" : 34962
        },
        {
            "buffer" : 0,
            "byteLength" : 13696,
            "byteOffset" : 245800,
            "target" : 34962
        },
        {
            "buffer" : 0,
            "byteLength" : 4932,
            "byteOffset" : 259496,
            "target" : 34963
        },
        {
            "buffer" : 0,
            "byteLength" : 1344,
            "byteOffset" : 264428
        }
    ],
    "samplers" : [
        {
            "magFilter" : 9729,
            "minFilter" : 9987
        }
    ],
    "buffers" : [
        {
            "byteLength" : 265772,
            "uri" : "monkey2.bin"
        }
    ]
}
